HIERARCHY
ROOT cyl_med
{
	OFFSET 0.000000 0.000000 0.000000
	CHANNELS 6 Xposition Yposition Zposition Yrotation Xrotation Zrotation
	End Site
	{
		OFFSET 0.000000 0.000000 0.000000
	}
}
MOTION
Frames: 152
Frame Time: 0.008333334
-4.327755 1.026380 4.157191 -51.218600 -0.060242 -0.608521 
-4.327815 1.026424 4.157107 -51.253080 -0.089966 -0.648132 
-4.327950 1.026744 4.156537 -51.219760 -0.040863 -0.598480 
-4.327260 1.026700 4.156647 -51.268070 -0.076355 -0.648132 
-4.327308 1.026959 4.156574 -51.241610 -0.079803 -0.646484 
-4.327326 1.026841 4.156281 -51.252960 -0.114044 -0.666962 
-4.327705 1.026347 4.156684 -51.268680 -0.054443 -0.666199 
-4.328025 1.026146 4.157252 -51.261750 -0.061798 -0.663727 
-4.328794 1.026197 4.157745 -51.204320 -0.038574 -0.640869 
-4.329170 1.025681 4.158676 -51.223300 0.056726 -0.660492 
-4.329093 1.025240 4.159310 -51.273930 0.031264 -0.660980 
-4.329058 1.024656 4.160213 -51.207890 0.084032 -0.712158 
-4.329418 1.024243 4.161325 -51.217930 0.061453 -0.733612 
-4.330023 1.024324 4.162406 -51.191830 0.095587 -0.745728 
-4.330372 1.024431 4.162879 -51.261540 0.060360 -0.693787 
-4.330297 1.024170 4.162775 -51.168270 0.098396 -0.721497 
-4.329917 1.024024 4.163023 -51.192930 0.100864 -0.717560 
-4.330606 1.024439 4.163181 -51.253970 0.083350 -0.705414 
-4.330539 1.024322 4.162154 -51.173000 0.077793 -0.752960 
-4.330204 1.024137 4.161512 -51.207090 0.093840 -0.717743 
-4.330381 1.024155 4.161775 -51.196080 0.035741 -0.775604 
-4.330233 1.024284 4.161362 -51.221310 0.071408 -0.741913 
-4.330432 1.024146 4.161197 -51.208920 0.094290 -0.703888 
-4.330848 1.024330 4.161994 -51.173100 0.066323 -0.709961 
-4.330969 1.024230 4.162131 -51.198610 0.097979 -0.714111 
-4.330732 1.024195 4.162299 -51.145840 0.093042 -0.725342 
-4.331228 1.024268 4.163061 -51.257320 0.043478 -0.701233 
-4.330503 1.024032 4.162608 -51.239440 0.051131 -0.740723 
-4.330070 1.024386 4.162953 -51.253140 0.060027 -0.700378 
-4.330013 1.024262 4.162536 -51.235900 0.034604 -0.752533 
-4.329740 1.024285 4.161934 -51.164550 0.068806 -0.722931 
-4.329855 1.024368 4.162182 -51.180110 0.096775 -0.744293 
-4.330532 1.024214 4.162429 -51.246190 0.060135 -0.725952 
-4.330676 1.024354 4.162527 -51.222560 0.076839 -0.676392 
-4.330837 1.024408 4.162573 -51.244870 0.080065 -0.726471 
-4.331081 1.024357 4.162292 -51.159360 0.078849 -0.730164 
-4.331108 1.024031 4.162443 -51.185420 0.069416 -0.783203 
-4.331007 1.024245 4.162463 -51.239320 0.095429 -0.716766 
-4.330834 1.024342 4.162279 -51.155820 0.095286 -0.737183 
-4.330650 1.024340 4.162273 -51.167760 0.097782 -0.746582 
-4.330195 1.024412 4.162057 -51.158870 0.100677 -0.727051 
-4.330119 1.024342 4.162285 -51.179570 0.066142 -0.723480 
-4.330364 1.024107 4.161977 -51.225250 0.085696 -0.741791 
-4.330323 1.024125 4.162439 -51.145840 0.070154 -0.753235 
-4.330373 1.024128 4.162498 -51.169070 0.056717 -0.751251 
-4.330560 1.024278 4.162390 -51.180540 0.079839 -0.750183 
-4.330652 1.024479 4.162700 -51.204740 0.053954 -0.674133 
-4.330679 1.024194 4.162477 -51.167270 0.070495 -0.756653 
-4.331145 1.024391 4.162627 -51.218200 0.056726 -0.692261 
-4.330748 1.024200 4.162194 -51.266240 0.059903 -0.696838 
-4.330980 1.024271 4.162054 -51.175230 0.081673 -0.727631 
-4.330974 1.024418 4.162750 -51.223300 0.065239 -0.687164 
-4.330958 1.024267 4.162279 -51.176450 0.079113 -0.730896 
-4.330796 1.024370 4.162479 -51.189610 0.091565 -0.726318 
-4.330488 1.024169 4.162366 -51.163700 0.068155 -0.736450 
-4.330421 1.024245 4.162203 -51.195500 0.075979 -0.749817 
-4.330208 1.024024 4.162210 -51.185670 0.065536 -0.737396 
-4.329675 1.024102 4.162453 -51.289150 0.044324 -0.717041 
-4.329764 1.024329 4.162508 -51.281770 0.063237 -0.689850 
-4.329291 1.024305 4.161474 -51.223020 0.089007 -0.694489 
-4.328665 1.023975 4.161602 -51.235600 0.054395 -0.719544 
-4.329268 1.024323 4.161754 -51.203740 0.070983 -0.693848 
-4.329163 1.024327 4.162639 -51.296020 0.096118 -0.677429 
-4.329340 1.024184 4.162879 -51.335050 0.063860 -0.672272 
-4.329606 1.023858 4.162929 -51.221860 0.065507 -0.725311 
-4.329630 1.023653 4.163631 -51.339870 0.105147 -0.722107 
-4.330009 1.023603 4.164116 -51.346220 0.046197 -0.724609 
-4.330061 1.023513 4.164230 -51.349090 0.047429 -0.721161 
-4.330032 1.022716 4.164564 -51.325200 0.069723 -0.741699 
-4.330117 1.022540 4.165395 -51.346500 0.053506 -0.707092 
-4.330713 1.022486 4.166426 -51.303990 0.036914 -0.700714 
-4.331358 1.022160 4.167166 -51.329380 0.047244 -0.688324 
-4.330988 1.021464 4.167898 -51.318240 0.033043 -0.723724 
-4.330524 1.021195 4.168550 -51.386290 0.015496 -0.786194 
-4.330964 1.021260 4.168497 -51.348540 0.030052 -0.730835 
-4.330928 1.021164 4.168016 -51.384700 0.016675 -0.697205 
-4.331122 1.021616 4.167179 -51.297150 0.051481 -0.690643 
-4.331080 1.021814 4.166568 -51.272130 0.057160 -0.685028 
-4.330705 1.021834 4.166539 -51.286470 0.070122 -0.659180 
-4.330467 1.021766 4.166454 -51.287870 0.060682 -0.679565 
-4.330387 1.021693 4.166255 -51.261050 0.067043 -0.729675 
-4.330542 1.022001 4.165906 -51.298000 0.058679 -0.710144 
-4.330229 1.021719 4.165823 -51.287750 0.040416 -0.710175 
-4.330317 1.021664 4.165489 -51.337490 0.041439 -0.723908 
-4.330539 1.021846 4.165414 -51.279390 0.034245 -0.720184 
-4.330458 1.021536 4.165627 -51.337040 0.033574 -0.680420 
-4.330736 1.021348 4.165747 -51.317140 0.083181 -0.735504 
-4.330196 1.020685 4.166429 -51.346530 0.066465 -0.739838 
-4.330643 1.020833 4.166398 -51.349150 0.087201 -0.711243 
-4.330537 1.020838 4.166984 -51.333800 0.048562 -0.705902 
-4.330883 1.021130 4.167109 -51.339840 0.055724 -0.722015 
-4.330263 1.020962 4.167102 -51.316410 0.071816 -0.724365 
-4.330021 1.020867 4.166871 -51.331820 0.051945 -0.729492 
-4.330131 1.021036 4.167032 -51.355190 0.036894 -0.730957 
-4.330048 1.020829 4.166633 -51.346740 0.049974 -0.737915 
-4.329811 1.020681 4.167029 -51.368770 0.024498 -0.719452 
-4.330373 1.021071 4.166354 -51.313320 0.066427 -0.689423 
-4.331019 1.021111 4.166659 -51.350710 0.085836 -0.718506 
-4.330621 1.020664 4.166961 -51.340730 0.077082 -0.746704 
-4.331498 1.020569 4.166992 -51.317900 0.056084 -0.768555 
-4.331392 1.020311 4.167525 -51.338870 0.043955 -0.772308 
-4.331468 1.020080 4.168231 -51.427370 0.040252 -0.735199 
-4.331378 1.019540 4.168017 -51.355710 0.036334 -0.797791 
-4.331398 1.019896 4.168564 -51.395480 0.003356 -0.783447 
-4.331328 1.020079 4.168274 -51.369200 0.010362 -0.769165 
-4.332151 1.020106 4.167766 -51.390350 0.037811 -0.771240 
-4.331647 1.020064 4.167891 -51.414580 0.032953 -0.753967 
-4.331793 1.020496 4.167162 -51.305300 0.052253 -0.784363 
-4.331971 1.019921 4.167096 -51.352080 0.042987 -0.782959 
-4.331784 1.020133 4.167320 -51.364690 0.051475 -0.773743 
-4.332288 1.019964 4.167415 -51.386510 0.030077 -0.734222 
-4.332572 1.019528 4.167343 -51.315060 0.038597 -0.797638 
-4.332245 1.019545 4.168457 -51.423460 0.033034 -0.786530 
-4.332080 1.019579 4.168520 -51.418640 0.049094 -0.786163 
-4.332394 1.019664 4.168758 -51.414730 0.077214 -0.760498 
-4.332408 1.019512 4.168914 -51.410680 0.056764 -0.768707 
-4.332423 1.019643 4.168879 -51.401670 0.053901 -0.736328 
-4.332040 1.019597 4.168792 -51.440000 0.060775 -0.751648 
-4.332096 1.019659 4.168612 -51.422150 0.050019 -0.768494 
-4.332104 1.019696 4.168478 -51.417660 0.033083 -0.767578 
-4.332314 1.019752 4.168033 -51.397950 0.041663 -0.754974 
-4.332048 1.019625 4.168376 -51.409730 0.040371 -0.771484 
-4.332204 1.019541 4.168077 -51.363770 0.061833 -0.791412 
-4.332242 1.019557 4.168413 -51.416140 0.073049 -0.779450 
-4.332599 1.019385 4.168689 -51.398010 0.045333 -0.766388 
-4.332726 1.019570 4.168654 -51.396390 0.078586 -0.711456 
-4.332753 1.019384 4.168481 -51.347320 0.062247 -0.785889 
-4.333019 1.019154 4.168818 -51.388460 0.037156 -0.772766 
-4.333592 1.019338 4.168525 -51.380740 0.048486 -0.715179 
-4.333585 1.019277 4.168480 -51.362490 0.038451 -0.760529 
-4.333100 1.019438 4.168615 -51.391850 0.054560 -0.764069 
-4.333306 1.019600 4.168424 -51.416930 0.079949 -0.747192 
-4.332887 1.019367 4.168128 -51.349820 0.052943 -0.785095 
-4.333107 1.019343 4.168233 -51.382480 0.031819 -0.759735 
-4.333536 1.019534 4.167899 -51.378230 0.048103 -0.748016 
-4.333056 1.019490 4.168060 -51.413270 0.053865 -0.738495 
-4.333708 1.019369 4.167805 -51.325960 0.064576 -0.785492 
-4.333757 1.019610 4.167775 -51.372740 0.085687 -0.753204 
-4.333949 1.019798 4.167465 -51.361970 0.054753 -0.732636 
-4.333155 1.020353 4.167328 -51.373470 0.092769 -0.744293 
-4.333008 1.020299 4.166876 -51.372770 0.074557 -0.713196 
-4.332997 1.020594 4.166341 -51.317200 0.072990 -0.736298 
-4.332732 1.020955 4.165999 -51.287960 0.089461 -0.699860 
-4.332410 1.021352 4.165794 -51.310550 0.080357 -0.674561 
-4.331772 1.021521 4.165197 -51.313080 0.059484 -0.681641 
-4.331114 1.022095 4.164614 -51.224820 0.055030 -0.720215 
-4.330500 1.022812 4.163608 -51.181180 0.092614 -0.773590 
-4.330477 1.022688 4.163369 -51.216740 0.025947 -0.755554 
-4.329773 1.022944 4.162405 -51.246150 0.097626 -0.735809 
-4.329508 1.022897 4.162212 -51.259400 0.053377 -0.759491 
-4.329175 1.023047 4.161809 -51.269470 0.068887 -0.773224 
-4.329128 1.023435 4.161740 -51.266270 0.067518 -0.729309 
